<svg xmlns="http://www.w3.org/2000/svg" viewBox="0 0 210.67 211.94"><defs><style>.cls-1{fill:none;}.cls-1,.cls-2{stroke:#fff;stroke-miterlimit:10;stroke-width:4px;}.cls-2,.cls-3{fill:#fff;}.cls-3{font-size:22.31px;font-family:Urbanist-SemiBold, Urbanist;font-weight:600;}</style></defs><g id="Layer_2" data-name="Layer 2"><g id="Layer_1-2" data-name="Layer 1"><rect width="210.67" height="211.94" rx="105.34"/><path class="cls-1" d="M105.24,199.36a93.84,93.84,0,1,1,93.84-93.83"/><line class="cls-2" x1="96.81" y1="172.89" x2="113.86" y2="172.89"/><line class="cls-2" x1="96.81" y1="163.76" x2="113.86" y2="163.76"/><line class="cls-2" x1="96.81" y1="155.02" x2="113.86" y2="155.02"/><line class="cls-2" x1="96.81" y1="145.84" x2="113.86" y2="145.84"/><line class="cls-2" x1="96.85" y1="127.79" x2="113.9" y2="127.79"/><line class="cls-2" x1="84.72" y1="102.96" x2="125.77" y2="110.06"/><line class="cls-2" x1="84.72" y1="93.69" x2="125.77" y2="100.79"/><line class="cls-2" x1="106.17" y1="82.57" x2="125.86" y2="82.57"/><line class="cls-2" x1="106.17" y1="74.04" x2="125.86" y2="74.04"/><line class="cls-2" x1="106.17" y1="64.77" x2="125.86" y2="64.77"/><line class="cls-2" x1="106.17" y1="55.84" x2="125.86" y2="55.84"/><line class="cls-2" x1="106.17" y1="46.88" x2="125.86" y2="46.88"/><line class="cls-2" x1="96.87" y1="28.74" x2="113.92" y2="28.74"/><line class="cls-2" x1="105.28" y1="183.02" x2="105.28" y2="21.69"/><text class="cls-3" transform="translate(113.53 204.75) rotate(-9.06) scale(0.99 1)">e</text><text class="cls-3" transform="matrix(0.92, -0.36, 0.36, 0.93, 132.88, 200.95)">a</text><text class="cls-3" transform="translate(152.08 192.7) rotate(-33.21) scale(0.99 1)">g</text><text class="cls-3" transform="translate(169.1 180.58) rotate(-45.08) scale(0.99 1)">n</text><text class="cls-3" transform="translate(182.63 166.04) rotate(-56.74) scale(0.99 1)">a</text><text class="cls-3" transform="matrix(0.4, -0.9, 0.91, 0.41, 193.21, 148.17)">.</text><text class="cls-3" transform="translate(197.47 137.68) rotate(-72.92) scale(0.99 1)">i</text><text class="cls-3" transform="translate(200.96 125.26) rotate(-82.19) scale(0.99 1)">o</text></g></g></svg>