<svg xmlns="http://www.w3.org/2000/svg" viewBox="0 0 210.67 211.94"><defs><style>.cls-1,.cls-3{fill:#fff;}.cls-2{fill:none;}.cls-2,.cls-3{stroke:#000;stroke-miterlimit:10;stroke-width:4px;}.cls-4{font-size:22.31px;font-family:Urbanist-SemiBold, Urbanist;font-weight:600;}</style></defs><g id="Layer_2" data-name="Layer 2"><g id="Layer_1-2" data-name="Layer 1"><rect class="cls-1" width="210.67" height="211.94" rx="105.34"/><path class="cls-2" d="M105.92,199.16a93.84,93.84,0,1,1,93.84-93.84"/><line class="cls-3" x1="97.49" y1="172.69" x2="114.54" y2="172.69"/><line class="cls-3" x1="97.49" y1="163.55" x2="114.54" y2="163.55"/><line class="cls-3" x1="97.49" y1="154.82" x2="114.54" y2="154.82"/><line class="cls-3" x1="97.49" y1="145.64" x2="114.54" y2="145.64"/><line class="cls-3" x1="97.53" y1="127.58" x2="114.58" y2="127.58"/><line class="cls-3" x1="85.4" y1="102.75" x2="126.45" y2="109.85"/><line class="cls-3" x1="85.4" y1="93.48" x2="126.45" y2="100.58"/><line class="cls-3" x1="106.85" y1="82.36" x2="126.54" y2="82.36"/><line class="cls-3" x1="106.85" y1="73.83" x2="126.54" y2="73.83"/><line class="cls-3" x1="106.85" y1="64.56" x2="126.54" y2="64.56"/><line class="cls-3" x1="106.85" y1="55.63" x2="126.54" y2="55.63"/><line class="cls-3" x1="106.85" y1="46.67" x2="126.54" y2="46.67"/><line class="cls-3" x1="97.55" y1="28.53" x2="114.6" y2="28.53"/><line class="cls-3" x1="105.96" y1="182.81" x2="105.96" y2="21.49"/><text class="cls-4" transform="translate(114.2 204.54) rotate(-9.06) scale(0.99 1)">e</text><text class="cls-4" transform="matrix(0.92, -0.36, 0.36, 0.93, 133.56, 200.74)">a</text><text class="cls-4" transform="translate(152.76 192.5) rotate(-33.21) scale(0.99 1)">g</text><text class="cls-4" transform="translate(169.78 180.37) rotate(-45.08) scale(0.99 1)">n</text><text class="cls-4" transform="translate(183.31 165.83) rotate(-56.74) scale(0.99 1)">a</text><text class="cls-4" transform="matrix(0.4, -0.9, 0.91, 0.41, 193.89, 147.97)">.</text><text class="cls-4" transform="translate(198.15 137.47) rotate(-72.92) scale(0.99 1)">i</text><text class="cls-4" transform="translate(201.64 125.05) rotate(-82.19) scale(0.99 1)">o</text></g></g></svg>