<svg xmlns="http://www.w3.org/2000/svg" viewBox="0 0 202.75 204.55"><defs><style>.cls-1{fill:none;}.cls-1,.cls-2{stroke:#fff;stroke-miterlimit:10;stroke-width:4px;}.cls-2,.cls-3{fill:#fff;}.cls-3{font-size:22.31px;font-family:Urbanist-SemiBold, Urbanist;font-weight:600;}</style></defs><g id="Layer_2" data-name="Layer 2"><g id="Layer_1-2" data-name="Layer 1"><path class="cls-1" d="M99.69,193.74A93.84,93.84,0,1,1,193.52,99.9"/><line class="cls-2" x1="91.25" y1="167.27" x2="108.3" y2="167.27"/><line class="cls-2" x1="91.25" y1="158.14" x2="108.3" y2="158.14"/><line class="cls-2" x1="91.25" y1="149.4" x2="108.3" y2="149.4"/><line class="cls-2" x1="91.25" y1="140.22" x2="108.3" y2="140.22"/><line class="cls-2" x1="91.29" y1="122.16" x2="108.34" y2="122.16"/><line class="cls-2" x1="79.16" y1="97.33" x2="120.21" y2="104.43"/><line class="cls-2" x1="79.16" y1="88.06" x2="120.21" y2="95.16"/><line class="cls-2" x1="100.61" y1="76.94" x2="120.3" y2="76.94"/><line class="cls-2" x1="100.61" y1="68.41" x2="120.3" y2="68.41"/><line class="cls-2" x1="100.61" y1="59.14" x2="120.3" y2="59.14"/><line class="cls-2" x1="100.61" y1="50.21" x2="120.3" y2="50.21"/><line class="cls-2" x1="100.61" y1="41.25" x2="120.3" y2="41.25"/><line class="cls-2" x1="91.31" y1="23.11" x2="108.36" y2="23.11"/><line class="cls-2" x1="99.73" y1="177.39" x2="99.73" y2="16.07"/><text class="cls-3" transform="translate(107.97 199.12) rotate(-9.06) scale(0.99 1)">e</text><text class="cls-3" transform="matrix(0.92, -0.36, 0.36, 0.93, 127.32, 195.32)">a</text><text class="cls-3" transform="translate(146.52 187.08) rotate(-33.21) scale(0.99 1)">g</text><text class="cls-3" transform="translate(163.54 174.95) rotate(-45.08) scale(0.99 1)">n</text><text class="cls-3" transform="translate(177.08 160.41) rotate(-56.74) scale(0.99 1)">a</text><text class="cls-3" transform="matrix(0.4, -0.9, 0.91, 0.41, 187.66, 142.55)">.</text><text class="cls-3" transform="translate(191.91 132.05) rotate(-72.92) scale(0.99 1)">i</text><text class="cls-3" transform="translate(195.4 119.63) rotate(-82.19) scale(0.99 1)">o</text></g></g></svg>